<mxfile host="app.diagrams.net" modified="2020-10-17T19:07:38.930Z" agent="5.0 (Windows)" etag="FP0ltvjNHvwUsiqF1Fnt" version="13.8.0" type="github">
  <diagram id="nkkZ_1amUaEbMj8p4QCU" name="Page-1">
    <mxGraphModel dx="1030" dy="2880" grid="1" gridSize="10" guides="1" tooltips="1" connect="1" arrows="1" fold="1" page="1" pageScale="1" pageWidth="827" pageHeight="1169" math="0" shadow="0">
      <root>
        <mxCell id="0" />
        <mxCell id="1" parent="0" />
        <mxCell id="4gUd2wJ3LDoqXExxlqaR-1" value="&lt;font style=&quot;font-size: 34px&quot;&gt;Organize, Progress, Journal&lt;/font&gt;" style="rounded=0;whiteSpace=wrap;html=1;" vertex="1" parent="1">
          <mxGeometry x="140" y="-1740" width="490" height="100" as="geometry" />
        </mxCell>
        <mxCell id="4gUd2wJ3LDoqXExxlqaR-2" value="Computer Science and Software Engineering" style="rounded=0;whiteSpace=wrap;html=1;" vertex="1" parent="1">
          <mxGeometry x="30" y="-1600" width="200" height="60" as="geometry" />
        </mxCell>
        <mxCell id="4gUd2wJ3LDoqXExxlqaR-3" value="Mathematics" style="rounded=0;whiteSpace=wrap;html=1;" vertex="1" parent="1">
          <mxGeometry x="294" y="-1600" width="216" height="70" as="geometry" />
        </mxCell>
        <mxCell id="4gUd2wJ3LDoqXExxlqaR-4" value="Linguistics" style="rounded=0;whiteSpace=wrap;html=1;" vertex="1" parent="1">
          <mxGeometry x="570" y="-1600" width="190" height="60" as="geometry" />
        </mxCell>
        <mxCell id="4gUd2wJ3LDoqXExxlqaR-7" value="" style="endArrow=none;html=1;entryX=0;entryY=1;entryDx=0;entryDy=0;" edge="1" parent="1" source="4gUd2wJ3LDoqXExxlqaR-2" target="4gUd2wJ3LDoqXExxlqaR-1">
          <mxGeometry width="50" height="50" relative="1" as="geometry">
            <mxPoint x="390" y="-1440" as="sourcePoint" />
            <mxPoint x="440" y="-1490" as="targetPoint" />
          </mxGeometry>
        </mxCell>
        <mxCell id="4gUd2wJ3LDoqXExxlqaR-8" value="" style="endArrow=none;html=1;entryX=0.5;entryY=1;entryDx=0;entryDy=0;exitX=0.5;exitY=0;exitDx=0;exitDy=0;" edge="1" parent="1" source="4gUd2wJ3LDoqXExxlqaR-3" target="4gUd2wJ3LDoqXExxlqaR-1">
          <mxGeometry width="50" height="50" relative="1" as="geometry">
            <mxPoint x="390" y="-1440" as="sourcePoint" />
            <mxPoint x="440" y="-1490" as="targetPoint" />
          </mxGeometry>
        </mxCell>
        <mxCell id="4gUd2wJ3LDoqXExxlqaR-9" value="" style="endArrow=none;html=1;entryX=1;entryY=1;entryDx=0;entryDy=0;exitX=0.5;exitY=0;exitDx=0;exitDy=0;" edge="1" parent="1" source="4gUd2wJ3LDoqXExxlqaR-4" target="4gUd2wJ3LDoqXExxlqaR-1">
          <mxGeometry width="50" height="50" relative="1" as="geometry">
            <mxPoint x="390" y="-1440" as="sourcePoint" />
            <mxPoint x="440" y="-1490" as="targetPoint" />
          </mxGeometry>
        </mxCell>
      </root>
    </mxGraphModel>
  </diagram>
</mxfile>
